<?xml version="1.0" standalone="no"?>
<!DOCTYPE svg PUBLIC "-//W3C//DTD SVG 20010904//EN"
 "http://www.w3.org/TR/2001/REC-SVG-20010904/DTD/svg10.dtd">
<svg version="1.0" xmlns="http://www.w3.org/2000/svg"
 width="1200.000000pt" height="1200.000000pt" viewBox="0 0 1200.000000 1200.000000"
 preserveAspectRatio="xMidYMid meet">

<g transform="translate(0.000000,1200.000000) scale(0.100000,-0.100000)"
fill="#000000" stroke="none">
<path d="M1060 11051 c-71 -22 -230 -111 -230 -128 0 -16 25 -29 75 -38 22 -3
87 -20 144 -36 58 -16 114 -29 127 -29 26 0 34 -17 34 -72 0 -44 -18 -71 -128
-189 l-54 -59 -31 24 c-18 13 -66 40 -107 59 -41 20 -104 55 -140 78 -95 62
-148 79 -259 85 -121 6 -195 -10 -224 -48 -23 -31 -24 -53 -9 -186 15 -129 51
-204 142 -293 80 -79 215 -151 321 -173 l64 -13 3 -45 c5 -72 -24 -184 -72
-282 -75 -152 -147 -235 -465 -536 -221 -209 -251 -246 -251 -309 0 -69 35
-163 81 -215 48 -55 146 -118 242 -155 116 -46 113 -46 121 -10 3 17 3 35 0
41 -17 27 -31 107 -21 117 8 8 6 11 -8 11 -11 1 -36 14 -55 30 -19 17 -38 30
-43 30 -5 0 -40 9 -78 21 l-68 21 -3 66 -3 67 -50 3 c-40 2 -55 -1 -73 -18
l-22 -21 0 36 c0 32 12 47 133 168 73 72 202 200 288 282 87 84 179 183 209
225 100 142 160 306 160 439 0 27 4 61 10 75 6 16 6 28 0 31 -5 3 -12 -6 -16
-20 -8 -32 -36 -33 -130 -4 -142 43 -291 153 -347 258 -30 55 -52 150 -43 187
5 19 13 24 37 24 17 0 39 4 49 10 13 7 34 3 80 -16 68 -27 210 -129 210 -150
0 -7 25 -19 58 -28 31 -9 81 -26 110 -37 48 -19 58 -20 94 -8 54 18 118 90
118 135 0 18 4 36 10 39 5 3 49 51 96 106 l87 101 -6 68 c-5 64 -4 70 28 117
18 27 49 63 68 80 59 52 165 54 452 8 86 -14 106 -24 118 -59 2 -6 7 -8 11 -4
4 3 2 16 -4 28 -31 59 59 59 180 2 76 -36 88 -46 108 -85 27 -54 27 -53 1
-112 -11 -25 -18 -49 -15 -52 8 -8 46 84 46 113 0 13 -10 44 -22 69 -17 34
-30 47 -57 56 -20 7 -62 25 -93 40 -62 31 -103 36 -154 17 -27 -10 -61 -8
-187 11 -100 15 -188 22 -253 20 -80 -2 -104 1 -125 15 -62 40 -175 47 -269
17z m222 -13 c22 -6 42 -17 44 -23 3 -6 -11 -28 -29 -47 -19 -20 -47 -57 -63
-83 -29 -46 -29 -47 -74 -42 -25 3 -70 14 -100 24 l-55 18 -3 53 c-2 31 2 60
9 68 31 37 191 56 271 32z"/>
<path d="M1568 10864 c-14 -13 -8 -41 12 -59 11 -10 20 -26 20 -36 0 -23 45
-76 73 -85 12 -4 35 -16 51 -27 16 -11 39 -22 50 -23 49 -5 122 96 132 182 7
57 7 57 -17 50 -13 -4 -58 -14 -99 -22 -41 -8 -99 -21 -128 -30 -60 -17 -79
-10 -84 33 -2 14 -6 21 -10 17z"/>
<path d="M1955 10670 c-84 -12 -95 -18 -95 -49 0 -43 -52 -138 -127 -229 -37
-46 -82 -105 -98 -132 -17 -26 -43 -62 -58 -79 -15 -18 -30 -51 -34 -73 -3
-23 -15 -50 -26 -61 -20 -20 -20 -20 2 -112 11 -51 41 -144 65 -206 24 -63 63
-163 86 -223 38 -98 42 -116 37 -170 -6 -63 16 -127 47 -139 29 -11 56 -112
56 -213 0 -103 17 -164 46 -164 15 0 16 -11 9 -107 -12 -192 -11 -215 10 -258
27 -54 49 -56 95 -8 48 50 92 76 176 103 38 12 89 33 114 47 49 27 196 67 217
59 7 -3 13 -14 13 -24 0 -10 5 -23 10 -28 12 -12 -11 -158 -30 -193 -13 -25
-5 -245 12 -299 5 -18 26 -54 46 -80 42 -55 62 -115 62 -186 0 -56 33 -145 75
-205 14 -21 54 -70 89 -109 67 -73 92 -126 82 -168 -4 -15 5 -57 23 -112 17
-48 35 -109 41 -137 6 -30 29 -78 57 -118 26 -38 49 -85 52 -105 5 -30 11 -37
31 -40 88 -9 113 -16 139 -38 16 -13 31 -24 35 -24 13 0 107 146 125 194 30
81 46 209 31 246 -11 27 -9 35 21 86 19 32 56 81 83 111 46 51 50 53 67 37 28
-25 45 -11 62 53 51 186 85 300 95 318 6 11 47 56 91 100 83 81 92 95 66 95
-30 0 -14 25 65 100 l80 77 4 134 4 133 38 32 c21 18 73 51 115 73 64 34 94
60 169 143 51 55 101 119 111 142 22 51 69 266 69 321 0 22 5 60 11 84 8 36 7
47 -7 62 -21 24 -23 23 126 4 63 -8 288 -33 500 -55 535 -56 804 -92 973 -131
l48 -11 -4 -97 c-3 -63 -12 -120 -27 -167 -28 -86 -23 -121 20 -136 42 -14 41
-56 -4 -105 -45 -51 -60 -84 -82 -175 l-19 -77 -75 -7 c-41 -4 -136 -4 -210
-1 -125 6 -142 5 -226 -19 -51 -14 -116 -38 -145 -53 -49 -24 -56 -32 -78 -86
-19 -47 -25 -84 -29 -170 l-4 -110 48 -94 c30 -58 56 -97 71 -104 20 -9 23
-18 23 -63 0 -62 -16 -77 -73 -67 -50 8 -55 -12 -23 -82 32 -69 142 -255 211
-355 28 -41 67 -104 85 -140 32 -61 34 -71 32 -153 -1 -49 -9 -121 -17 -160
-7 -40 -19 -115 -25 -168 -10 -87 -9 -99 9 -142 11 -26 25 -65 31 -86 14 -52
101 -196 162 -268 51 -60 58 -85 32 -114 -14 -16 -14 -18 3 -27 10 -6 135 -43
278 -83 255 -71 263 -72 410 -79 152 -6 193 -16 224 -54 29 -35 67 -18 231 99
63 45 180 125 260 177 80 52 159 111 176 130 27 30 47 72 79 166 10 27 36 9
88 -60 85 -114 89 -123 85 -170 l-3 -42 45 -12 c25 -7 97 -24 160 -39 63 -14
152 -42 198 -62 95 -41 91 -41 195 32 81 56 97 76 178 225 34 63 82 144 107
179 38 54 52 89 94 235 27 94 51 188 54 208 4 20 12 39 20 42 24 9 34 81 45
326 8 183 8 319 -1 537 -7 160 -9 312 -6 337 10 67 132 208 315 367 36 31 41
41 41 77 0 22 -5 52 -11 65 -10 22 -5 38 36 123 44 92 109 273 101 282 -2 2
-88 9 -191 17 -103 7 -189 16 -193 19 -3 3 9 6 26 6 18 0 32 5 32 10 0 14 -31
12 -63 -5 -25 -13 -92 -10 -650 31 -342 26 -683 50 -757 54 -74 5 -148 14
-165 20 -16 7 -82 14 -145 17 -69 3 -131 11 -155 20 -45 17 -241 21 -272 5
-21 -11 -479 21 -532 37 -123 37 -529 95 -1031 146 -701 72 -949 110 -1055
163 -163 81 -506 279 -577 333 -97 73 -166 111 -355 198 -83 38 -218 106 -300
150 -82 45 -161 81 -174 81 -29 0 -70 40 -123 122 -37 56 -96 98 -140 98 -9 0
-30 6 -45 14 -37 20 -133 124 -163 178 l-23 43 -95 1 c-52 1 -118 -2 -145 -6z
m5024 -1579 c9 -5 -22 -7 -74 -4 -50 3 -94 10 -100 15 -12 13 150 2 174 -11z"/>
<path d="M1376 10026 c-16 -26 -23 -116 -8 -116 4 0 6 15 4 34 -2 19 3 47 13
66 20 39 14 50 -9 16z"/>
<path d="M1357 9848 c-25 -37 -30 -90 -14 -129 l15 -34 -5 56 c-4 41 -1 66 11
90 19 38 14 51 -7 17z"/>
<path d="M1393 9519 c7 -68 31 -112 63 -117 17 -2 16 0 -4 17 -25 22 -42 69
-42 118 0 17 -5 35 -12 39 -8 5 -9 -10 -5 -57z"/>
<path d="M1720 9125 c0 -12 52 -87 56 -82 3 3 -6 24 -20 46 -24 37 -36 49 -36
36z"/>
<path d="M9695 9061 c-30 -4 -122 -38 -227 -85 -157 -70 -176 -81 -165 -95
156 -184 269 -325 276 -345 14 -36 31 -271 31 -427 l0 -137 33 -28 c17 -15 57
-39 87 -53 50 -23 69 -26 197 -29 l142 -3 11 -57 c51 -265 60 -294 121 -411
33 -64 80 -142 105 -174 34 -45 43 -63 38 -80 -17 -53 -75 -168 -119 -232
l-47 -70 7 -88 c7 -105 8 -109 43 -129 15 -10 88 -76 162 -147 74 -72 138
-131 141 -131 4 0 10 20 13 45 8 49 20 64 31 37 3 -9 11 -177 15 -372 5 -195
14 -386 19 -425 6 -38 10 -76 11 -84 0 -8 8 -4 19 10 l19 24 6 -45 c4 -25 6
-58 5 -75 -4 -62 3 -346 11 -507 10 -178 28 -271 81 -401 23 -57 25 -67 11
-62 -9 4 -38 9 -65 12 -37 5 -52 2 -67 -12 -18 -17 -20 -31 -20 -172 0 -140
-2 -157 -20 -180 -20 -26 -26 -53 -12 -53 4 0 13 14 20 32 17 45 20 33 11 -37
-4 -33 -8 -91 -8 -128 -1 -107 -37 -261 -81 -352 -53 -111 -100 -280 -78 -287
7 -3 -7 -117 -31 -244 -12 -64 31 -134 72 -118 11 4 7 -26 -14 -118 -42 -181
-62 -335 -63 -496 -1 -90 -5 -141 -11 -138 -5 2 -138 23 -295 46 -157 24 -286
44 -288 45 -1 1 21 51 49 111 171 365 267 710 329 1183 24 181 24 317 0 366
-15 29 -19 30 -95 36 -44 3 -84 2 -89 -2 -11 -10 -21 -235 -12 -284 15 -78
100 -111 161 -63 l28 22 -7 -70 c-32 -305 -126 -685 -243 -984 -47 -119 -139
-310 -149 -310 -3 0 -15 11 -25 25 -17 20 -23 23 -43 14 -13 -6 -39 -36 -57
-66 -19 -30 -68 -105 -108 -167 -76 -112 -120 -203 -121 -243 0 -24 -4 -23
175 -42 50 -6 167 -13 260 -16 137 -5 178 -4 210 8 135 50 269 109 325 144 64
39 65 41 68 86 2 32 -5 66 -24 113 -26 67 -27 71 -21 223 11 288 54 479 232
1036 130 404 182 618 206 836 11 102 11 108 -8 133 -31 39 -98 199 -129 304
-14 51 -25 94 -23 96 2 1 30 20 62 40 76 50 166 150 205 228 18 35 42 101 53
148 20 80 21 98 14 295 -15 369 -13 441 12 521 25 78 54 127 95 157 22 17 47
21 151 25 81 3 137 1 158 -7 29 -10 37 -9 62 9 l28 21 -5 -73 c-3 -40 -8 -126
-11 -190 -7 -139 -35 -342 -64 -455 -24 -92 -26 -112 -11 -97 15 15 57 210 75
349 18 133 34 506 36 835 l1 215 22 -85 c12 -47 25 -91 27 -98 3 -8 23 14 46
50 24 35 55 80 70 101 25 36 27 48 34 185 5 81 13 201 19 267 5 66 15 247 20
401 5 155 12 288 14 295 3 8 12 94 21 192 l16 178 -79 132 c-125 209 -205 364
-190 370 10 4 10 8 -2 16 -10 7 -17 7 -21 -1 -15 -24 -482 98 -603 157 -39 19
-91 46 -116 60 -25 14 -72 30 -105 35 -71 10 -977 20 -1050 11z m806 -5607
c-16 -49 -29 -84 -30 -77 -1 17 49 176 55 171 2 -3 -9 -45 -25 -94z"/>
<path d="M1660 9056 c0 -12 43 -76 51 -76 5 0 -3 18 -17 40 -25 37 -34 47 -34
36z"/>
<path d="M9185 8960 c25 -11 122 -13 129 -2 2 4 -30 8 -72 9 -51 1 -70 -1 -57
-7z"/>
<path d="M373 8824 c-27 -21 -33 -33 -33 -63 0 -53 17 -70 76 -77 53 -7 94 6
94 29 0 34 -24 85 -49 104 -44 34 -53 35 -88 7z"/>
<path d="M1061 8478 c-1 -17 10 -40 29 -61 l29 -34 -72 -21 c-39 -12 -93 -28
-120 -36 -47 -15 -48 -15 -110 18 -41 22 -68 31 -78 26 -8 -5 -50 -4 -94 1
-56 7 -86 7 -105 -1 -38 -16 -97 9 -106 44 -3 14 -10 26 -16 26 -12 0 0 -40
19 -62 9 -10 30 -22 48 -28 17 -6 38 -22 46 -36 20 -38 42 -46 137 -46 94 -1
190 19 356 72 l99 32 46 -25 c141 -77 310 -107 610 -107 l213 0 48 -35 c106
-77 209 -217 291 -390 43 -92 80 -188 190 -490 22 -60 69 -168 104 -240 62
-129 166 -423 204 -580 10 -44 26 -97 35 -118 9 -21 32 -95 50 -165 38 -142
139 -442 193 -572 49 -120 170 -358 238 -470 125 -205 277 -387 409 -486 81
-62 187 -112 267 -126 35 -6 66 -13 67 -14 2 -1 24 -59 47 -128 49 -138 107
-348 155 -561 18 -77 47 -203 66 -280 18 -77 47 -216 65 -310 31 -167 31 -172
26 -410 -5 -254 -17 -352 -62 -494 -26 -80 -82 -196 -130 -269 -25 -38 -31
-42 -70 -42 -32 0 -46 -5 -56 -20 -8 -11 -41 -31 -74 -45 -93 -37 -95 -45 -35
-161 29 -55 66 -111 83 -127 18 -15 46 -41 62 -57 31 -29 180 -90 221 -90 12
0 44 -7 70 -16 l49 -15 105 40 c67 25 112 48 123 63 19 26 29 85 47 293 6 72
18 143 26 159 18 36 18 42 0 27 -8 -7 -18 -27 -21 -44 -14 -70 -6 -67 -112
-35 -53 15 -99 30 -101 33 -2 2 3 25 12 51 18 53 21 73 7 59 -4 -6 -14 -31
-21 -57 -7 -27 -16 -48 -20 -48 -4 0 -60 16 -126 35 -65 19 -120 35 -121 35
-1 0 19 43 43 95 80 169 124 397 124 647 0 106 1 108 20 98 19 -10 20 -8 20
80 0 50 7 122 16 161 l16 70 -51 200 c-69 268 -105 349 -157 349 -16 0 -25 7
-28 23 -35 161 -106 423 -147 542 -29 83 -52 165 -51 183 1 18 -5 46 -13 62
-8 16 -15 41 -15 56 0 43 -101 290 -198 483 -85 170 -89 176 -161 238 -41 35
-83 63 -94 63 -10 0 -35 17 -53 37 -34 37 -43 38 -24 2 10 -17 7 -19 -20 -19
-16 0 -30 -4 -30 -10 0 -17 -23 -11 -54 14 -30 25 -21 45 13 26 28 -14 49 -14
33 2 -6 6 -27 12 -46 13 -47 3 -64 18 -76 69 -16 62 -55 148 -125 276 -74 133
-144 299 -224 525 -54 151 -58 160 -81 157 -14 -1 -38 -16 -53 -33 -24 -27
-28 -37 -23 -68 5 -26 4 -32 -3 -21 -6 8 -11 22 -11 31 0 9 -16 68 -36 130
-20 63 -51 162 -69 220 -19 59 -65 171 -103 250 -39 79 -105 241 -147 359
-146 404 -218 541 -360 686 -49 50 -101 99 -114 107 l-24 16 27 41 c15 22 56
72 91 111 36 39 65 76 65 82 0 16 -122 -116 -165 -179 l-35 -52 -132 -7 c-393
-21 -734 76 -778 221 l-8 29 -1 -27z m1816 -2070 c-3 -7 -5 -2 -5 12 0 14 2
19 5 13 2 -7 2 -19 0 -25z m1190 -1700 c-3 -8 -6 -5 -6 6 -1 11 2 17 5 13 3
-3 4 -12 1 -19z m20 -100 c-3 -8 -6 -5 -6 6 -1 11 2 17 5 13 3 -3 4 -12 1 -19z"/>
<path d="M11706 6623 c-3 -15 -9 -104 -12 -198 -8 -194 5 -367 41 -584 22
-125 23 -153 14 -215 -6 -39 -20 -91 -31 -116 -17 -39 -19 -64 -17 -190 2
-100 -1 -152 -9 -167 -18 -33 -21 -28 -12 15 9 40 6 189 -4 199 -3 4 -6 -36
-6 -89 0 -52 -6 -117 -14 -144 -8 -27 -17 -73 -20 -102 -6 -49 -4 -58 26 -105
18 -29 61 -83 96 -120 67 -74 68 -76 81 -187 10 -84 31 -178 66 -290 53 -166
71 -687 31 -864 -14 -64 -15 -88 -1 -74 3 3 12 38 21 79 25 123 29 349 10 577
-16 195 -16 203 1 226 17 21 18 42 16 227 -4 245 -21 359 -118 789 -145 645
-178 900 -155 1204 11 143 9 187 -4 129z"/>
<path d="M11335 5620 c0 -88 3 -160 6 -160 11 0 20 174 13 248 -4 40 -10 72
-13 72 -3 0 -6 -72 -6 -160z"/>
<path d="M9125 5679 c-75 -17 -165 -51 -165 -61 0 -6 8 -7 18 -3 9 3 53 17 98
30 262 76 507 17 625 -152 47 -68 69 -138 119 -377 27 -129 66 -274 115 -424
41 -125 85 -269 99 -319 23 -86 23 -94 8 -103 -15 -8 -14 -9 4 -10 23 0 52
-55 76 -144 11 -41 28 -63 28 -36 0 18 -41 133 -60 170 -10 19 -24 60 -31 90
-6 30 -49 171 -95 313 -46 142 -95 313 -110 380 -14 67 -37 171 -50 231 -50
232 -146 350 -328 405 -54 17 -93 21 -190 20 -66 -1 -139 -5 -161 -10z"/>
<path d="M9240 5625 l0 -35 -111 0 -110 0 -67 -56 c-81 -68 -89 -80 -69 -102
13 -15 -2 -32 -172 -182 l-186 -165 -165 -2 c-183 -3 -180 -6 -45 53 33 15 54
29 48 31 -7 3 -59 -16 -115 -41 -120 -52 -161 -61 -403 -81 -236 -19 -261 -24
-281 -46 -13 -14 -31 -19 -71 -19 -29 0 -53 5 -53 10 0 12 -93 13 -106 1 -5
-5 -92 -11 -194 -13 -179 -4 -187 -5 -240 -32 -133 -68 -150 -95 -150 -235 l0
-101 -27 12 c-16 7 -98 51 -183 99 -224 125 -309 166 -423 204 -134 45 -229
59 -352 52 -88 -5 -225 -34 -242 -51 -16 -15 7 -13 62 6 76 26 285 36 377 19
156 -30 280 -82 531 -223 411 -230 639 -310 969 -339 295 -25 738 34 1052 140
49 17 94 28 100 24 49 -27 159 -122 186 -159 73 -102 234 -204 465 -294 61
-24 114 -47 119 -51 5 -5 10 -83 10 -173 1 -150 3 -167 22 -193 74 -102 200
-62 225 73 14 75 7 197 -15 250 l-17 41 -90 5 c-49 3 -92 8 -95 11 -3 3 2 20
11 38 16 30 16 35 -1 86 -10 29 -22 53 -26 53 -9 0 0 -45 15 -74 9 -19 -9 -96
-23 -96 -22 0 -329 133 -391 170 -76 45 -229 187 -229 214 0 8 14 24 30 36 34
24 35 24 103 -39 20 -19 37 -30 37 -24 0 6 -23 32 -52 57 -29 25 -43 43 -32
40 11 -3 53 2 94 10 41 9 101 16 132 16 72 0 97 10 150 58 24 22 82 67 130
101 48 33 89 69 92 79 3 9 1 33 -4 52 -6 19 -10 94 -10 166 0 97 -4 139 -15
161 -8 17 -22 83 -31 147 -17 135 -23 153 -68 215 -18 25 -43 65 -56 89 -29
51 -40 53 -40 7z m-484 -1089 l77 -12 -37 -28 -37 -28 -54 42 c-57 44 -66 53
-41 44 8 -3 50 -11 92 -18z"/>
<path d="M11502 5190 c0 -14 2 -19 5 -12 2 6 2 18 0 25 -3 6 -5 1 -5 -13z"/>
<path d="M11282 5123 c-22 -89 -42 -179 -42 -188 1 -5 7 2 15 16 20 37 55 198
44 204 -4 3 -12 -11 -17 -32z"/>
<path d="M10519 5094 c-7 -16 -25 -58 -40 -93 -32 -69 -38 -98 -14 -64 21 30
78 174 71 180 -3 3 -11 -7 -17 -23z"/>
<path d="M7695 5074 c-33 -8 -64 -19 -69 -24 -14 -14 6 -13 78 6 34 9 82 14
109 11 46 -4 63 5 31 17 -25 10 -84 6 -149 -10z"/>
<path d="M5508 4256 l5 -499 -24 7 c-66 21 -63 22 -112 -61 -76 -129 -81 -145
-81 -269 -1 -106 0 -112 29 -159 23 -36 40 -51 74 -64 l44 -16 34 -160 c23
-109 35 -201 40 -289 4 -92 9 -123 16 -111 16 28 0 184 -38 370 l-35 170 25
230 c48 440 48 452 36 875 -17 552 -19 548 -13 -24z"/>
<path d="M10407 4744 c-4 -4 -7 -19 -6 -33 l0 -26 10 24 c10 26 8 47 -4 35z"/>
<path d="M5300 4713 c0 -12 38 -48 45 -41 3 2 -6 15 -20 28 -14 13 -25 19 -25
13z"/>
<path d="M11044 4526 c-11 -11 -31 -29 -43 -39 -19 -15 -22 -25 -17 -50 4 -18
8 -41 10 -53 2 -11 14 -40 26 -63 12 -24 36 -89 55 -144 18 -56 50 -139 70
-184 20 -47 47 -134 60 -199 14 -64 29 -121 33 -128 5 -6 16 -47 25 -91 32
-162 40 -285 34 -515 l-5 -225 -69 -110 c-39 -60 -93 -144 -121 -185 -46 -68
-96 -185 -86 -201 8 -13 304 -38 489 -40 137 -2 142 -2 210 29 39 17 100 42
136 55 37 14 85 37 108 51 l41 26 0 118 0 118 -320 49 c-176 27 -320 52 -320
56 0 16 -33 40 -47 35 -12 -5 -13 4 -7 52 22 167 1 593 -36 720 -8 29 -7 32 5
22 8 -7 15 -18 15 -24 -1 -28 66 -133 97 -153 19 -13 38 -23 43 -23 16 0 50
138 50 207 0 38 7 93 16 123 29 103 29 106 -19 254 -26 78 -49 153 -52 168 -3
17 -31 50 -77 90 -83 73 -119 108 -206 207 -35 39 -67 71 -70 70 -4 -1 -16
-11 -28 -23z"/>
<path d="M4830 4359 c-76 -31 -110 -53 -104 -68 12 -31 34 -168 40 -256 6 -82
-1 -153 -22 -210 -4 -12 -3 -17 2 -12 5 5 14 23 21 40 9 26 12 -6 12 -183 1
-214 -10 -332 -45 -490 -20 -90 -18 -114 12 -181 23 -50 25 -62 15 -90 -6 -18
-9 -34 -6 -37 5 -5 25 43 25 61 0 6 17 -6 38 -26 21 -21 41 -34 45 -31 4 4 7
104 7 222 0 119 3 213 6 210 3 -4 10 -52 14 -108 5 -56 28 -201 51 -322 l41
-220 -30 -26 c-38 -35 -88 -117 -101 -167 -5 -22 -13 -68 -17 -103 -5 -47 -12
-67 -28 -78 l-21 -16 30 -21 c16 -12 47 -38 67 -58 36 -34 43 -36 124 -42 49
-4 96 -13 109 -21 20 -13 30 -12 101 13 170 59 299 120 336 159 51 53 58 72
58 159 l0 79 -57 28 c-37 18 -137 45 -282 77 -124 28 -226 51 -227 52 -1 1 4
49 11 107 14 116 30 499 20 489 -3 -4 -10 -107 -15 -230 -9 -239 -24 -362 -47
-380 -7 -7 -15 -10 -16 -8 -2 2 -13 60 -26 129 -13 69 -32 175 -43 235 -31
168 -29 519 3 605 l13 35 6 -30 c6 -25 8 -21 14 30 4 33 18 130 32 215 41 272
49 379 32 430 l-15 45 -79 2 c-43 1 -90 -2 -104 -8z"/>
<path d="M9860 4337 c0 -20 4 -38 9 -42 6 -3 7 10 4 32 -8 50 -13 55 -13 10z"/>
<path d="M9100 4335 c0 -14 87 -91 95 -83 2 2 -18 25 -45 50 -28 26 -50 41
-50 33z"/>
<path d="M4646 4260 c3 -19 10 -51 14 -70 l8 -35 0 35 c0 19 -6 51 -14 70
l-14 35 6 -35z"/>
<path d="M9821 4223 c-12 -14 -19 -28 -16 -31 3 -3 6 -3 8 -1 1 2 13 16 26 32
14 15 20 27 13 27 -6 0 -20 -12 -31 -27z"/>
<path d="M10362 4035 c0 -16 2 -22 5 -12 2 9 2 23 0 30 -3 6 -5 -1 -5 -18z"/>
<path d="M11730 3616 c0 -14 21 -58 26 -54 8 8 -7 58 -17 58 -5 0 -9 -2 -9 -4z"/>
<path d="M4572 3399 c-18 -21 -29 -39 -23 -39 11 0 66 68 60 75 -2 2 -19 -14
-37 -36z"/>
<path d="M4770 2610 c0 -27 5 -50 10 -50 6 0 10 23 10 50 0 28 -4 50 -10 50
-5 0 -10 -22 -10 -50z"/>
<path d="M11636 2265 c-9 -26 -7 -32 5 -12 6 10 9 21 6 23 -2 3 -7 -2 -11 -11z"/>
</g>
</svg>
