<?xml version="1.0" standalone="no"?>
<!DOCTYPE svg PUBLIC "-//W3C//DTD SVG 20010904//EN"
 "http://www.w3.org/TR/2001/REC-SVG-20010904/DTD/svg10.dtd">
<svg version="1.0" xmlns="http://www.w3.org/2000/svg"
 width="1200.000000pt" height="1200.000000pt" viewBox="0 0 1200.000000 1200.000000"
 preserveAspectRatio="xMidYMid meet">

<g transform="translate(0.000000,1200.000000) scale(0.100000,-0.100000)"
fill="#000000" stroke="none">
<path d="M1070 11051 c-60 -19 -169 -72 -213 -103 -27 -19 -27 -21 -11 -39 9
-10 27 -19 39 -19 13 0 63 -12 111 -26 49 -14 116 -31 149 -38 l60 -12 3 -57
3 -57 -72 -83 c-111 -127 -104 -122 -138 -98 -15 11 -70 41 -122 67 -52 26
-115 62 -141 81 -77 56 -147 75 -273 76 -62 0 -126 -5 -147 -12 -60 -20 -86
-79 -63 -145 7 -21 11 -52 8 -70 -7 -42 19 -135 53 -194 37 -64 127 -149 205
-195 66 -39 202 -87 245 -87 23 0 24 -3 24 -58 0 -113 -52 -263 -132 -382 -61
-90 -163 -200 -308 -334 -184 -169 -327 -318 -340 -351 -26 -69 7 -196 71
-269 48 -55 146 -118 242 -155 116 -46 113 -46 121 -10 3 17 3 35 0 41 -17 27
-31 107 -21 117 8 8 6 11 -8 11 -11 1 -36 14 -55 30 -19 17 -38 30 -43 30 -5
0 -40 9 -78 21 l-68 21 -3 66 -3 67 -50 3 c-40 2 -55 -1 -73 -18 l-22 -21 0
36 c0 32 12 47 133 168 72 72 200 197 283 277 82 80 174 177 202 215 104 140
157 273 168 418 3 45 10 94 14 110 11 35 -7 37 -20 2 -11 -28 -11 -28 -120 2
-210 57 -392 244 -394 406 l-1 62 50 12 c45 12 56 11 109 -9 65 -24 216 -130
216 -152 0 -8 25 -20 63 -31 34 -9 82 -26 107 -36 40 -18 49 -18 89 -7 55 16
121 87 121 130 0 22 22 54 96 139 l97 111 -7 64 c-4 42 -2 72 5 87 27 51 92
126 122 138 45 20 218 17 357 -4 162 -26 159 -25 172 -52 6 -14 15 -25 19 -25
5 0 3 12 -3 26 -11 22 -10 28 7 40 30 22 64 17 155 -26 47 -22 90 -40 96 -40
11 0 54 -82 54 -104 0 -7 -9 -35 -21 -61 -11 -25 -18 -49 -16 -52 8 -7 47 86
47 111 -1 11 -11 41 -24 65 -20 39 -32 48 -117 87 -99 46 -132 52 -186 32 -27
-10 -61 -8 -192 11 -106 15 -191 22 -254 20 -68 -3 -98 0 -110 9 -50 42 -177
52 -267 23z m164 -1 c32 -5 70 -17 83 -25 l25 -16 -50 -53 c-27 -29 -57 -67
-67 -85 -16 -33 -18 -33 -68 -28 -29 3 -76 13 -104 22 l-53 16 0 65 c0 65 0
65 35 80 19 8 58 18 87 23 29 5 53 9 53 10 0 0 26 -3 59 -9z"/>
<path d="M1568 10864 c-14 -13 -8 -41 12 -59 11 -10 20 -25 20 -34 0 -28 30
-61 79 -85 26 -14 52 -31 59 -38 45 -55 153 54 165 166 6 56 5 58 -16 51 -12
-4 -53 -13 -92 -21 -38 -8 -96 -21 -129 -30 -65 -16 -83 -10 -88 33 -2 14 -6
21 -10 17z"/>
<path d="M2000 10673 c-19 -1 -59 -8 -87 -14 -51 -10 -53 -12 -53 -43 0 -18
-12 -55 -26 -82 -31 -59 -112 -169 -149 -204 -15 -14 -34 -38 -42 -55 -9 -16
-32 -52 -53 -80 -21 -27 -42 -67 -46 -89 -3 -21 -16 -48 -27 -59 l-20 -20 22
-92 c23 -94 72 -236 116 -335 67 -150 78 -190 72 -259 -6 -72 4 -100 47 -140
36 -34 47 -77 56 -217 7 -121 19 -164 45 -164 24 0 29 -83 11 -176 -9 -45 -16
-93 -16 -106 0 -33 46 -128 62 -128 19 0 58 29 58 43 0 18 115 81 181 100 30
9 81 30 113 47 52 28 81 37 183 56 29 6 33 4 48 -32 14 -33 14 -49 4 -109 -6
-38 -18 -83 -26 -98 -12 -25 -13 -51 -4 -169 10 -121 15 -146 37 -184 14 -24
30 -47 35 -50 22 -13 41 -73 50 -156 13 -130 56 -209 190 -354 47 -51 68 -105
55 -139 -3 -8 10 -64 28 -123 19 -59 37 -123 41 -142 3 -19 27 -65 52 -102 26
-37 49 -85 52 -105 l6 -38 63 -6 c43 -4 73 -13 94 -29 38 -28 48 -23 101 46
46 61 75 134 94 244 12 66 13 92 4 117 -14 38 1 74 73 169 63 84 72 91 94 70
38 -34 43 -26 92 154 58 213 57 210 153 309 48 49 87 92 87 95 0 4 -7 6 -15 6
-30 0 -13 27 65 101 l80 77 1 128 2 129 37 36 c20 19 72 54 116 76 64 33 95
59 160 130 121 132 130 149 164 309 17 76 30 159 30 184 0 25 4 61 10 79 8 28
6 38 -7 53 -15 17 -15 18 5 18 12 0 70 -7 129 -15 59 -8 286 -33 503 -55 511
-53 883 -104 993 -136 29 -9 24 -154 -9 -260 -30 -95 -25 -134 17 -144 18 -4
25 -13 27 -39 3 -26 -4 -40 -37 -76 -38 -42 -69 -115 -86 -209 -5 -22 -14 -38
-26 -41 -11 -4 -113 -6 -227 -4 l-207 2 -95 -31 c-107 -36 -152 -60 -175 -95
-25 -38 -47 -164 -43 -248 3 -65 9 -87 43 -154 23 -45 54 -88 73 -103 32 -24
33 -28 27 -71 -10 -64 -20 -74 -72 -67 -53 7 -60 -4 -37 -60 25 -59 128 -236
205 -352 38 -56 85 -135 105 -174 36 -71 36 -73 29 -157 -4 -47 -13 -120 -21
-161 -8 -41 -14 -93 -14 -115 0 -22 -5 -57 -11 -78 -9 -33 -6 -50 26 -140 20
-56 52 -126 70 -154 19 -29 35 -57 35 -62 0 -5 27 -42 60 -81 61 -74 73 -107
45 -130 -9 -8 -12 -17 -7 -22 5 -5 130 -43 278 -84 266 -75 271 -76 427 -83
141 -6 160 -9 185 -29 52 -42 69 -47 105 -30 17 9 99 64 181 122 83 59 195
135 250 169 134 82 185 134 215 217 31 85 39 95 61 75 9 -9 44 -52 76 -97 48
-67 60 -91 64 -132 l5 -51 165 -41 c91 -23 198 -56 238 -73 41 -18 81 -30 89
-27 42 17 168 115 193 151 15 23 56 93 90 156 34 63 80 137 101 165 31 43 47
82 88 225 27 96 53 191 56 212 4 20 14 41 22 45 33 19 37 80 37 662 l1 576 50
59 c87 102 178 196 230 237 28 22 55 50 62 62 16 27 16 78 2 110 -10 21 -4 41
44 148 46 104 100 249 94 255 -1 1 -79 7 -172 13 -94 6 -181 14 -195 17 -24 5
-24 6 10 19 l35 14 -35 -6 c-19 -4 -40 -11 -47 -16 -16 -13 -1444 87 -1538
108 -38 8 -117 18 -175 20 -58 3 -125 12 -149 20 -51 16 -233 19 -261 4 -25
-13 -458 16 -525 35 -142 41 -530 96 -1065 150 -401 41 -593 65 -815 101
l-160 26 -140 76 c-240 129 -447 251 -528 310 -82 61 -146 96 -402 217 -88 42
-203 101 -256 131 -53 30 -116 58 -140 62 -40 7 -48 13 -92 77 -69 101 -97
126 -151 136 -26 5 -67 23 -92 40 -43 29 -119 121 -150 182 -14 26 -17 27 -92
25 -42 0 -93 -3 -112 -5z m4950 -1574 c28 -6 50 -13 48 -15 -8 -7 -238 9 -238
18 0 12 130 10 190 -3z"/>
<path d="M1376 10021 c-17 -31 -22 -111 -8 -111 4 0 6 15 4 34 -2 19 3 47 13
66 9 17 14 34 11 37 -2 3 -12 -9 -20 -26z"/>
<path d="M1352 9835 c-14 -29 -16 -114 -4 -133 5 -7 6 14 4 47 -2 34 1 67 8
80 6 13 10 25 7 27 -2 2 -9 -7 -15 -21z"/>
<path d="M1390 9551 c0 -54 21 -121 43 -136 28 -20 35 -10 9 12 -15 13 -24 38
-31 82 -12 71 -21 91 -21 42z"/>
<path d="M1746 9080 c15 -22 29 -38 31 -36 6 6 -40 76 -50 76 -4 0 5 -18 19
-40z"/>
<path d="M1680 9023 c13 -24 27 -43 32 -43 4 0 -4 17 -18 37 -36 53 -41 55
-14 6z"/>
<path d="M9478 8978 c-98 -45 -178 -84 -178 -87 0 -3 63 -82 141 -174 167
-200 158 -172 168 -522 l6 -229 55 -38 c77 -55 132 -68 276 -68 l123 0 11 -57
c55 -271 59 -287 116 -398 63 -122 99 -178 137 -214 l26 -23 -20 -49 c-29 -76
-67 -148 -117 -222 l-45 -67 6 -68 c11 -112 16 -127 50 -147 18 -11 91 -77
163 -147 72 -70 134 -125 137 -121 4 3 7 14 7 24 0 10 5 30 10 45 26 66 33 4
41 -338 8 -364 24 -570 42 -530 6 12 14 22 18 22 10 0 20 -49 20 -101 -1 -188
11 -598 19 -659 12 -83 49 -215 84 -295 l23 -51 -35 18 c-47 23 -104 23 -125
0 -14 -16 -17 -43 -17 -172 0 -116 -3 -157 -14 -169 -19 -22 -30 -61 -17 -61
6 0 11 8 11 19 0 10 7 25 16 32 15 12 16 10 10 -26 -3 -22 -10 -96 -15 -165
-10 -138 -43 -290 -72 -330 -35 -48 -82 -210 -84 -290 -1 -41 -10 -122 -19
-179 -21 -136 -21 -135 13 -173 26 -29 30 -31 47 -18 16 14 17 13 10 -15 -61
-240 -87 -416 -87 -603 -1 -142 -1 -144 -22 -139 -12 3 -146 24 -297 48 -151
23 -277 43 -279 45 -2 2 21 57 52 121 167 350 264 700 327 1183 25 186 24 306
-4 358 l-17 33 -82 -3 -81 -3 -9 -45 c-4 -25 -7 -93 -5 -152 3 -103 4 -108 33
-137 35 -38 88 -42 128 -11 14 11 27 20 29 20 3 0 -4 -60 -14 -132 -39 -287
-113 -595 -199 -830 -50 -136 -154 -367 -174 -388 -13 -13 -17 -12 -31 8 -23
33 -53 24 -87 -23 -76 -106 -212 -325 -229 -368 -28 -74 -25 -85 25 -91 131
-17 271 -26 417 -28 l165 -3 135 55 c74 30 168 74 209 99 l74 44 -6 57 c-2 31
-15 76 -27 101 -22 42 -23 51 -17 214 10 294 54 494 233 1048 122 378 181 617
204 836 10 89 9 105 -4 120 -41 45 -156 337 -156 395 0 6 29 31 64 54 86 57
159 140 207 237 70 142 83 289 54 616 -16 179 -11 238 25 343 28 83 61 136 95
154 24 14 61 17 197 17 155 1 169 2 183 20 14 19 14 19 15 -10 0 -16 -5 -109
-10 -205 -12 -202 -31 -342 -65 -488 -28 -117 -29 -120 -16 -107 14 15 58 225
76 360 17 128 34 548 35 860 l1 190 26 -105 c22 -88 28 -102 37 -86 6 10 25
40 43 65 88 127 85 120 94 279 4 81 15 246 23 367 9 121 16 272 16 336 0 64 7
181 15 260 8 79 19 194 24 254 l9 110 -73 120 c-98 163 -209 375 -196 375 6 0
11 3 11 8 0 4 -26 8 -57 9 -59 1 -350 72 -481 117 -40 14 -115 48 -166 76 -75
40 -109 52 -168 60 -40 5 -298 9 -573 9 l-500 0 -177 -81z m1028 -5514 c-18
-60 -36 -118 -39 -129 -5 -20 -5 -20 -6 0 -1 24 32 146 55 205 30 75 25 34
-10 -76z"/>
<path d="M9183 8963 c9 -2 23 -2 30 0 6 3 -1 5 -18 5 -16 0 -22 -2 -12 -5z"/>
<path d="M9243 8953 c9 -2 25 -2 35 0 9 3 1 5 -18 5 -19 0 -27 -2 -17 -5z"/>
<path d="M373 8824 c-27 -21 -33 -33 -33 -63 0 -53 17 -70 76 -77 53 -7 94 6
94 29 0 34 -24 85 -49 104 -44 34 -53 35 -88 7z"/>
<path d="M1061 8478 c-1 -17 10 -40 29 -61 l29 -34 -117 -36 -117 -36 -55 26
c-30 14 -58 25 -62 25 -5 -1 -8 3 -8 9 0 8 -4 8 -14 0 -13 -11 -107 -8 -149 5
-9 3 -33 0 -51 -6 -46 -15 -102 8 -112 44 -3 14 -10 26 -16 26 -12 0 0 -40 19
-62 9 -10 30 -22 48 -28 17 -6 38 -22 46 -36 19 -36 46 -44 147 -44 96 0 161
13 331 66 l114 36 46 -25 c142 -78 310 -107 613 -107 l216 0 49 -38 c167 -132
272 -316 428 -747 47 -132 117 -303 154 -380 64 -131 167 -424 205 -580 8 -33
26 -91 39 -130 14 -38 35 -108 47 -155 31 -126 144 -455 201 -588 192 -448
448 -808 680 -959 87 -55 144 -80 224 -95 l65 -11 30 -81 c43 -112 101 -311
145 -501 21 -88 53 -225 71 -305 19 -80 51 -224 71 -320 l38 -175 0 -270 c-1
-291 -10 -376 -60 -534 -26 -79 -82 -196 -130 -269 -25 -38 -31 -42 -70 -42
-32 0 -46 -5 -56 -20 -8 -11 -41 -31 -74 -45 -93 -37 -95 -45 -35 -161 29 -55
66 -111 83 -127 18 -15 46 -41 62 -57 31 -29 180 -90 221 -90 12 0 44 -7 70
-16 l49 -15 105 40 c67 25 112 48 123 63 19 26 29 85 47 293 6 72 18 143 26
159 18 36 18 42 0 27 -8 -7 -18 -27 -21 -44 -14 -70 -6 -67 -112 -35 -53 15
-99 30 -101 33 -2 2 3 25 12 51 18 53 21 73 7 59 -4 -6 -14 -31 -21 -57 -7
-27 -16 -48 -20 -48 -4 0 -60 16 -126 35 -65 19 -120 35 -121 35 -1 0 19 43
43 95 80 169 124 397 124 647 0 106 1 108 20 98 19 -10 20 -8 20 80 0 50 7
122 16 161 l16 70 -51 200 c-69 268 -105 349 -157 349 -16 0 -25 7 -28 23 -35
158 -107 422 -147 537 -28 80 -52 165 -53 190 -2 25 -8 55 -14 67 -7 12 -12
33 -12 46 0 14 -22 80 -50 148 -28 68 -50 127 -50 131 0 5 -38 87 -85 181 -73
148 -94 181 -148 235 -35 35 -85 74 -114 88 -29 13 -60 36 -69 50 -9 13 -19
23 -21 20 -3 -2 2 -15 11 -28 16 -24 15 -24 -19 -20 -27 3 -35 1 -35 -12 0
-22 -6 -20 -46 10 -55 42 -44 52 33 28 10 -3 5 2 -12 12 -23 13 -35 15 -57 6
-20 -7 -30 -7 -35 0 -3 7 -1 8 5 4 16 -10 15 4 -2 23 -7 9 -18 38 -25 64 -12
50 -94 221 -136 286 -32 48 -142 315 -207 500 -46 131 -55 151 -74 151 -12 0
-33 -9 -47 -20 -20 -16 -27 -31 -29 -68 l-3 -47 -13 45 c-7 25 -41 136 -77
247 -36 111 -65 207 -65 212 0 5 -16 36 -35 68 -44 75 -104 218 -194 468 -98
268 -156 395 -234 512 -60 91 -152 190 -221 239 l-29 21 23 39 c14 21 55 72
92 113 37 41 68 79 68 85 -1 19 -175 -182 -185 -213 -13 -43 -449 -37 -630 9
-157 40 -273 113 -295 186 l-8 29 -1 -27z m1823 -2060 c10 -38 6 -45 -9 -18
-17 29 -18 40 -6 40 5 0 11 -10 15 -22z m1186 -1705 c0 -32 -5 -28 -14 10 -4
19 -3 26 4 22 5 -3 10 -18 10 -32z m26 -121 c-9 -8 -13 0 -20 38 l-6 35 16
-34 c8 -18 13 -36 10 -39z"/>
<path d="M11703 6583 c-4 -37 -8 -158 -7 -268 1 -197 21 -394 59 -575 7 -35
10 -67 6 -70 -4 -3 -11 -31 -15 -63 -3 -32 -16 -77 -27 -99 -18 -36 -20 -55
-18 -192 3 -120 0 -156 -11 -173 -13 -18 -15 -7 -14 106 l2 126 -7 -120 c-4
-66 -12 -129 -18 -140 -5 -11 -13 -47 -16 -79 -6 -56 -4 -61 33 -115 21 -31
66 -87 99 -125 34 -38 62 -77 62 -85 1 -9 3 -25 5 -36 1 -11 5 -45 7 -76 2
-30 6 -60 10 -65 3 -6 13 -45 22 -86 8 -42 24 -102 35 -134 44 -127 65 -623
35 -800 -9 -49 -18 -97 -21 -106 -3 -10 -1 -18 4 -18 16 0 43 165 49 301 4 82
0 198 -12 340 -17 209 -17 217 1 244 16 25 18 48 16 218 -3 260 -22 380 -152
944 -107 468 -143 779 -122 1054 12 161 10 208 -5 92z"/>
<path d="M11335 5620 c0 -88 3 -160 6 -160 9 0 16 163 11 247 -8 126 -17 80
-17 -87z"/>
<path d="M9155 5683 c-66 -14 -195 -58 -195 -66 0 -5 8 -6 18 -2 66 29 190 57
272 61 161 10 303 -32 395 -117 83 -77 117 -155 160 -371 39 -197 67 -302 140
-523 37 -109 77 -240 90 -290 22 -82 22 -91 7 -102 -14 -12 -14 -13 5 -13 15
0 27 -14 46 -57 14 -32 29 -75 32 -95 4 -21 11 -38 16 -38 5 0 9 4 9 8 0 16
-37 117 -57 157 -11 22 -28 74 -38 115 -10 41 -50 176 -91 300 -81 249 -102
327 -139 516 -32 161 -67 269 -106 327 -59 90 -150 152 -266 182 -53 14 -247
19 -298 8z"/>
<path d="M9240 5625 l0 -35 -111 0 -111 0 -69 -61 c-66 -60 -80 -84 -59 -105
6 -6 -57 -68 -179 -176 l-188 -166 -167 -4 c-91 -1 -166 -2 -166 0 0 3 127 62
165 77 11 4 15 9 8 12 -6 2 -62 -19 -124 -46 -62 -28 -123 -51 -136 -51 -12 0
-53 -5 -90 -10 -38 -6 -147 -17 -243 -25 -144 -12 -180 -19 -202 -35 -22 -16
-42 -20 -100 -19 -52 1 -66 3 -48 9 20 6 14 8 -27 9 -29 1 -53 -3 -53 -8 0 -5
-84 -10 -187 -13 l-188 -4 -85 -45 c-120 -62 -132 -83 -128 -216 2 -65 -1
-103 -7 -103 -6 0 -87 43 -180 96 -237 134 -331 180 -449 219 -133 45 -228 59
-351 52 -88 -5 -225 -34 -242 -51 -16 -15 7 -13 62 6 76 26 285 36 377 19 155
-29 287 -85 528 -221 407 -230 652 -315 984 -340 303 -23 732 37 1057 147 l76
26 76 -57 c42 -32 94 -82 117 -111 84 -109 214 -193 445 -285 l156 -63 -6
-111 c-4 -62 -2 -142 4 -181 8 -59 15 -74 41 -97 48 -44 124 -35 173 20 27 30
44 182 29 262 -6 34 -18 73 -27 86 -14 22 -22 24 -93 24 -99 0 -108 6 -89 52
13 32 13 40 -4 89 -10 30 -18 45 -19 33 0 -12 5 -35 11 -52 11 -33 -3 -102
-22 -102 -15 0 -257 99 -322 132 -34 17 -87 48 -117 68 -62 42 -180 163 -180
185 0 12 50 55 64 55 4 0 29 -21 56 -46 28 -26 50 -42 50 -37 0 13 -76 83 -90
83 -6 0 -10 4 -10 9 0 5 30 12 68 15 37 3 108 10 157 14 101 9 121 17 185 76
25 23 73 61 107 84 33 23 70 53 81 66 17 23 18 29 6 87 -8 40 -11 98 -7 163 5
84 3 107 -11 135 -10 18 -24 88 -33 154 -8 67 -22 136 -31 153 -37 67 -117
193 -124 194 -5 0 -8 -16 -8 -35z m-496 -1084 l88 -17 -36 -28 -37 -28 -37 26
c-61 43 -88 66 -77 65 6 0 50 -8 99 -18z"/>
<path d="M11501 5194 c0 -11 3 -14 6 -6 3 7 2 16 -1 19 -3 4 -6 -2 -5 -13z"/>
<path d="M11286 5139 c-2 -8 -13 -54 -25 -103 -21 -90 -21 -124 -1 -70 17 43
43 175 36 181 -3 3 -7 0 -10 -8z"/>
<path d="M10490 5024 c-44 -110 -47 -121 -15 -62 33 62 67 148 57 148 -4 0
-23 -39 -42 -86z"/>
<path d="M7705 5074 c-75 -18 -89 -23 -83 -30 3 -3 33 2 66 10 33 9 86 16 118
17 42 0 53 3 39 9 -29 12 -71 10 -140 -6z"/>
<path d="M5508 4256 l5 -499 -24 7 c-66 21 -63 22 -112 -61 -76 -129 -81 -145
-81 -269 -1 -106 0 -112 29 -159 23 -36 40 -51 74 -64 l44 -16 34 -160 c23
-109 35 -201 40 -289 4 -92 9 -123 16 -111 16 28 0 184 -38 370 l-35 170 25
230 c48 440 48 452 36 875 -17 552 -19 548 -13 -24z"/>
<path d="M10407 4743 c-4 -3 -7 -18 -6 -32 1 -26 1 -25 10 3 9 31 7 41 -4 29z"/>
<path d="M5300 4713 c0 -12 38 -48 45 -41 3 2 -6 15 -20 28 -14 13 -25 19 -25
13z"/>
<path d="M11023 4506 c-24 -23 -43 -48 -43 -56 0 -9 9 -40 21 -70 12 -30 45
-120 74 -200 29 -80 69 -184 89 -232 20 -48 36 -97 36 -108 0 -29 31 -163 40
-175 13 -16 38 -155 51 -276 7 -70 10 -197 7 -334 l-5 -221 -38 -60 c-21 -32
-70 -108 -110 -169 -88 -133 -113 -181 -121 -233 l-6 -39 63 -6 c158 -16 315
-27 430 -28 l125 -2 145 58 c79 32 161 69 182 82 l38 24 -3 117 -3 117 -315
49 c-173 27 -317 53 -318 58 -7 18 -35 39 -46 35 -8 -3 -10 65 -8 252 4 248
-9 420 -38 522 -5 17 -5 29 1 29 5 0 12 -12 15 -27 14 -55 64 -129 105 -156
23 -15 44 -26 46 -24 16 16 43 155 43 222 1 50 7 95 17 120 25 60 21 120 -12
205 -16 41 -38 111 -50 154 l-20 79 -102 91 c-56 50 -132 125 -170 167 -37 43
-70 77 -73 76 -3 0 -24 -19 -47 -41z"/>
<path d="M4830 4359 c-76 -31 -110 -53 -104 -68 12 -31 34 -168 40 -256 6 -82
-1 -153 -22 -210 -4 -12 -3 -17 2 -12 5 5 14 23 21 40 9 26 12 -6 12 -183 1
-214 -10 -332 -45 -490 -20 -90 -18 -114 12 -181 23 -50 25 -62 15 -90 -6 -18
-9 -34 -6 -37 5 -5 25 43 25 61 0 6 17 -6 38 -26 21 -21 41 -34 45 -31 4 4 7
104 7 222 0 119 3 213 6 210 3 -4 10 -52 14 -108 5 -56 28 -201 51 -322 l41
-220 -30 -26 c-38 -35 -88 -117 -101 -167 -5 -22 -13 -68 -17 -103 -5 -47 -12
-67 -28 -78 l-21 -16 30 -21 c16 -12 47 -38 67 -58 36 -34 43 -36 124 -42 49
-4 96 -13 109 -21 20 -13 30 -12 101 13 170 59 299 120 336 159 51 53 58 72
58 159 l0 79 -57 28 c-37 18 -137 45 -282 77 -124 28 -226 51 -227 52 -1 1 4
49 11 107 14 116 30 499 20 489 -3 -4 -10 -107 -15 -230 -9 -239 -24 -362 -47
-380 -7 -7 -15 -10 -16 -8 -2 2 -13 60 -26 129 -13 69 -32 175 -43 235 -31
168 -29 519 3 605 l13 35 6 -30 c6 -25 8 -21 14 30 4 33 18 130 32 215 41 272
49 379 32 430 l-15 45 -79 2 c-43 1 -90 -2 -104 -8z"/>
<path d="M9860 4344 c0 -16 5 -36 10 -44 6 -10 7 -2 3 25 -7 49 -13 58 -13 19z"/>
<path d="M9100 4332 c0 -5 20 -26 45 -46 25 -21 45 -33 45 -29 0 5 -20 26 -45
46 -25 21 -45 34 -45 29z"/>
<path d="M4646 4260 c3 -19 10 -51 14 -70 l8 -35 0 35 c0 19 -6 51 -14 70
l-14 35 6 -35z"/>
<path d="M9828 4233 c-17 -20 -31 -43 -26 -43 2 0 16 14 31 30 16 17 25 30 19
30 -5 0 -16 -8 -24 -17z"/>
<path d="M10362 4035 c0 -16 2 -22 5 -12 2 9 2 23 0 30 -3 6 -5 -1 -5 -18z"/>
<path d="M11730 3616 c0 -14 21 -58 26 -54 8 8 -7 58 -17 58 -5 0 -9 -2 -9 -4z"/>
<path d="M4572 3399 c-18 -21 -29 -39 -23 -39 11 0 66 68 60 75 -2 2 -19 -14
-37 -36z"/>
<path d="M4770 2610 c0 -27 5 -50 10 -50 6 0 10 23 10 50 0 28 -4 50 -10 50
-5 0 -10 -22 -10 -50z"/>
<path d="M11636 2265 c-9 -26 -7 -32 5 -12 6 10 9 21 6 23 -2 3 -7 -2 -11 -11z"/>
<path d="M6957 814 c-4 -4 -7 -20 -7 -36 0 -28 -10 -34 -54 -29 -11 1 -23 -4
-27 -10 -5 -8 -13 -7 -30 5 -32 22 -65 20 -106 -5 -74 -46 -83 -137 -19 -196
27 -25 45 -33 74 -33 21 0 43 5 50 12 19 19 23 4 6 -20 -20 -30 -84 -31 -102
-2 -16 26 -52 27 -52 2 0 -37 42 -62 103 -62 92 0 117 38 117 176 0 77 2 84
20 84 18 0 20 -7 20 -74 0 -71 1 -76 29 -95 33 -24 47 -26 54 -8 4 9 8 9 15
-2 6 -8 17 -11 26 -8 13 5 16 23 16 92 0 72 3 87 18 92 29 11 37 29 23 52 -8
12 -12 12 -25 2 -12 -10 -20 -10 -29 -3 -7 6 -18 7 -26 3 -25 -16 -50 0 -53
32 -3 30 -25 47 -41 31z m-122 -129 c29 -28 32 -70 9 -103 -11 -16 -25 -22
-53 -22 -47 0 -63 18 -65 71 0 32 5 45 23 60 31 26 57 24 86 -6z m205 -55 c0
-78 -1 -80 -20 -70 -17 9 -20 21 -20 75 0 52 3 64 18 68 9 3 18 5 20 6 1 0 2
-35 2 -79z"/>
<path d="M6280 743 c-17 -12 -25 -13 -28 -5 -2 7 -10 12 -18 12 -11 0 -14 -27
-14 -148 0 -82 3 -151 6 -155 16 -16 34 8 34 46 0 32 3 38 12 29 7 -7 32 -12
56 -12 37 0 50 6 78 34 30 30 34 40 34 88 -1 57 -13 80 -57 110 -35 22 -71 23
-103 1z m95 -58 c49 -48 23 -125 -42 -125 -49 0 -73 24 -73 71 0 29 6 42 26
58 35 27 59 26 89 -4z"/>
<path d="M6530 751 c-8 -6 -27 -7 -42 -4 l-28 6 0 -122 c0 -121 0 -122 23
-119 20 3 22 9 25 86 3 75 5 83 28 98 20 13 30 15 49 6 23 -10 24 -17 27 -99
3 -80 5 -88 23 -88 19 0 20 6 17 95 -3 91 -4 96 -32 123 -31 27 -63 34 -90 18z"/>
<path d="M7205 750 c-66 -27 -95 -125 -56 -188 39 -61 119 -71 176 -21 19 17
35 37 35 45 0 21 -43 17 -58 -6 -16 -27 -82 -28 -105 -2 -10 10 -17 21 -17 25
0 3 43 7 95 9 90 3 94 2 100 -19 3 -12 19 -35 36 -52 47 -48 125 -42 171 13 9
12 17 27 18 34 0 19 -35 14 -55 -8 -24 -26 -86 -27 -108 -2 -10 10 -17 22 -17
25 0 4 41 7 90 7 96 0 94 -1 91 55 -3 56 -79 105 -138 90 -31 -7 -93 -69 -94
-93 0 -9 -5 -1 -12 18 -21 60 -94 94 -152 70z m83 -56 c36 -25 25 -34 -43 -34
-36 0 -65 4 -65 9 0 15 42 41 65 41 11 0 31 -7 43 -16z m236 5 c14 -7 27 -18
30 -25 4 -11 -10 -14 -64 -14 -73 0 -85 8 -48 34 27 19 48 20 82 5z"/>
<path d="M4349 718 c0 -2 -11 -51 -23 -110 l-23 -108 63 0 c52 0 67 4 93 25
53 45 65 132 24 177 -12 13 -31 18 -75 18 -32 0 -58 -1 -59 -2z m95 -41 c23
-17 26 -53 8 -92 -18 -38 -29 -45 -68 -45 l-31 0 15 75 c14 65 19 75 37 75 12
0 29 -6 39 -13z"/>
<path d="M4910 705 c0 -8 9 -15 19 -15 10 0 21 7 25 15 4 11 -1 15 -19 15 -16
0 -25 -6 -25 -15z"/>
<path d="M5634 685 c-7 -39 -7 -39 -36 -24 -29 16 -73 -6 -92 -46 -19 -39 -20
-56 -5 -89 11 -23 17 -25 74 -25 l61 1 18 86 c10 48 20 97 23 110 4 17 1 22
-15 22 -16 0 -23 -8 -28 -35z m-29 -76 c11 -32 -13 -79 -40 -79 -36 0 -43 49
-13 88 16 19 46 14 53 -9z"/>
<path d="M5800 713 c0 -5 -9 -50 -20 -102 -24 -115 -24 -111 0 -111 11 0 20 5
20 11 0 8 4 8 14 0 8 -7 30 -11 48 -9 27 2 36 10 52 41 35 72 -5 148 -63 118
-11 -7 -21 -10 -21 -9 0 2 4 18 9 36 9 30 8 32 -15 32 -13 0 -24 -3 -24 -7z
m85 -103 c9 -28 -16 -75 -40 -75 -15 0 -21 8 -23 33 -2 18 2 40 9 48 17 20 47
17 54 -6z"/>
<path d="M4581 656 c-76 -42 -62 -156 18 -156 46 0 84 24 61 39 -9 7 -18 7
-24 1 -15 -15 -53 -12 -59 4 -8 21 2 26 55 26 l48 0 0 34 c0 55 -48 80 -99 52z
m57 -48 c3 -14 -3 -18 -27 -18 -29 0 -41 17 -24 34 13 13 48 1 51 -16z"/>
<path d="M4734 647 c-36 -31 -27 -52 31 -78 25 -11 43 -24 40 -30 -8 -12 -52
-12 -60 1 -7 12 -55 13 -55 2 0 -41 105 -57 140 -22 34 34 21 63 -36 79 -15 4
-30 13 -32 20 -3 10 7 12 47 6 45 -6 50 -5 45 10 -7 18 -43 35 -74 35 -10 0
-31 -11 -46 -23z"/>
<path d="M4985 647 c-35 -30 -46 -99 -20 -127 20 -22 55 -26 73 -8 9 9 12 8
12 -4 0 -25 -30 -50 -49 -42 -9 3 -27 9 -39 12 -19 4 -23 1 -20 -14 5 -27 66
-41 104 -23 25 12 32 25 51 99 27 110 28 120 3 120 -11 0 -20 -5 -20 -11 0 -5
-10 -3 -22 5 -30 21 -42 20 -73 -7z m73 -34 c12 -21 -4 -69 -25 -77 -20 -8
-43 11 -43 36 0 50 48 78 68 41z"/>
<path d="M5222 654 c-12 -8 -22 -10 -22 -5 0 6 -9 11 -19 11 -16 0 -22 -11
-31 -57 -6 -32 -14 -68 -17 -80 -4 -18 -1 -23 14 -23 14 0 23 15 38 63 17 51
24 63 44 65 23 4 24 2 17 -40 -4 -23 -9 -53 -13 -65 -4 -18 -1 -23 16 -23 13
0 22 8 26 23 24 104 24 112 8 129 -20 22 -32 22 -61 2z"/>
<path d="M5374 660 c-50 -20 -70 -93 -38 -138 19 -28 84 -31 110 -5 15 16 15
17 -2 24 -11 3 -22 2 -25 -3 -10 -16 -54 -4 -57 15 -3 14 5 17 52 17 56 0 56
0 56 30 0 53 -44 81 -96 60z m51 -50 c0 -9 -11 -16 -27 -18 -27 -3 -38 14 -21
32 12 12 48 2 48 -14z"/>
<path d="M4890 603 c-6 -32 -14 -68 -17 -80 -4 -18 -1 -23 16 -23 13 0 22 8
26 23 30 134 30 137 6 137 -16 0 -22 -11 -31 -57z"/>
<path d="M5964 618 c18 -113 18 -124 2 -140 -8 -9 -21 -18 -28 -20 -17 -6 0
-28 21 -28 24 0 50 31 98 115 69 120 67 115 40 115 -20 0 -29 -10 -48 -55 -13
-30 -27 -55 -31 -55 -4 0 -10 25 -13 55 -6 46 -11 55 -27 55 -19 0 -20 -4 -14
-42z"/>
</g>
</svg>
